<svg version="1.1" xmlns="http://www.w3.org/2000/svg" width="0" height="0" viewBox="0 0 62 84" preserveAspectRatio="xMidYMin slice" role="img" aria-label="Liberty Mutual Insurance logo" style="padding-bottom: 135.48%;"><g class="lm-Logo--light"><path d="M41.8 34.34c-.24-.12-.7-.28-.7-.28l-1.4-11.32c1.04.3 1.33.44 2.28.87a18.7 18.7 0 0 1 6.32 4.57l-5.85 6.53c-.28-.2-.32-.2-.64-.37zM22.3 23.78s.41-.3 1.27-.64c2.39-1.07 6.02-1.59 8.61-1.5 1.14.04 1.8.09 2.85.22l-1.02 11.71s-.34.08-.67.2c-.17.07-.56.27-.56.27L22.29 23.78zm-6.23 46.57v.06c-.08 2.05-.09 4.8-1.46 8.36-4.7-6.07-7.15-14.7-7.15-24.27 0-5.92.84-11.43 2.54-16.2.1 2.56.22 5.43.3 5.71.1.41 3.66 11.3 4.12 12.94.74 2.66 1.61 9.03 1.65 13.4zm12.71.9c-2.56 2.2-6.64 6.1-9.44 11.45-.67-.3-1.29-.65-1.88-1.05.08-.14 1.85-3.16 4.52-6.59 3.95-5.09 11.26-9.45 17.66-10.78-4.33 2.24-6.79 3.45-10.86 6.97zm-9.5-45.83c.33-.2.42-.26.68-.38l8.24 15.23s-.12.6-.11.76l.04.78-.06.05-4.2-2.16c-.07-.25-.16-.5-.24-.73-.63-1.78-3.16-8.15-5.01-12.95.13-.13.27-.34.67-.6zm10.65 47.53c9.47-8.94 20.64-11 26.49-10.9-.1.83 0 .24-.1.72-8.52.35-23.65 4.19-33.16 21.23-.49-.13-.96-.27-1.4-.41.87-1.27 3.8-6.43 8.17-10.64zm18.92-33.6a1.42 1.42 0 0 0-.26-.2l3.34-6.43a32.33 32.33 0 0 1 2.26 4.59L49 39.55c-.06-.12-.09-.14-.14-.2zm2.48 8.3c.13-.46.25-1.2.25-1.2l4.32-3.65c.88 3.72 1.01 7.43 1.01 11.7 0 1.96-.1 3.72-.29 5.57l-1.27-.21-4.23-7.06-.33-3.97s.39-.66.54-1.17zm10.63-11.6l-10.63 8.23a7.1 7.1 0 0 0-1.3-3.41l11.87-4.92s.08-.04.1 0c.02.04-.04.1-.04.1zM21.98 25.73s-.04-.04.01-.08c.04-.03.08.02.08.02l9.03 9.31a5.57 5.57 0 0 0-2.14 2.74l-6.98-12zm5.25 17.42s-.23.52-.25 1.1c-.03.64.18 1.24.18 1.24l-2.73-1.9c.03-.64-.02-.8-.06-1.35l-.1-.82 2.96 1.73zM22.94 63.9c-.35 3.26-1.14 6.1-2.33 8.12-.76 1.3-2.9 3.94-3.65 4.94.8-1.63 1.44-5.57 1.39-8.63-.04-1.99-.64-6.38-.12-9.28.57-3.12 1.44-4.87 3.52-6.8a6.5 6.5 0 0 1 6.31-1.38l2.5 4.73a5.64 5.64 0 0 0-4.28.89c-2.22 1.72-2.97 4.03-3.34 7.4zm.25 6.43c.6-1.38 1.4-5.3 1.63-6.62.29-1.69.56-4.15 2.55-5.8a4.14 4.14 0 0 1 3.23-.74l2.83 5.8c.25.62 1.08.83 1.64.8-2.65.87-9.33 4.06-11.88 6.56zm24.05-18.51a7.7 7.7 0 0 1 2.1-2.03l.3 3.4s2.27 4.31 3.26 6.54c-.93-.02-1.81 0-2.62 0-.45-.81-.82-1.45-1.3-2.71l-1.77-3.32a1.8 1.8 0 0 1 .03-1.88zM37.2 16.19s0-.06.05-.06c.04 0 .05.06.05.06l2.13 17.46a9.86 9.86 0 0 0-3.7-.37L37.2 16.2zm-23.52 3.6c.06.21 8.2 21.46 8.33 21.7.14.24.6 3.8.64 4.08.04.27 1.25 3.13 1.49 3.4-1.08-.03-2.85.59-4.3 2.02-1.42 1.4-2.68 4.46-2.96 5.87-.1-.75-4.09-13-4.26-13.3-.17-.3-.94-16.82-.98-17.4l.88-.65v-.17c-.64-.03-1.38-.27-1.62-.64l-.24-5.07c-.88-.07-1.78-.35-2.12-.69-.42-.42-.75-.94-.28-1.86.44.3 1.73.68 2.84.68.24 0 .74.53 1.02.64.32.13.86.43 1.12.55.23.1.37.65.44.85zm40.7 4.45s.05-.04.07-.01c.03.02 0 .07 0 .07L47.12 38c-.73-.69-2.5-2.05-3.2-2.47l10.45-11.29zm-5.44 18.69c.06.28.15.68.06.92-.31-.41-2.5-2.5-2.5-2.5l-1.36 1.74 2.59 2.29c-.6.35-1.22.63-2.23.5-1.2-.15-3.85-1.83-3.9-3.15a15.78 15.78 0 0 0-5.57-1.18c-1.32.02-2.79.36-3.25.51-.45.16-.78-.13-1.14-.28l-.16.1 1 1.56c.3.15.88-.2 1.68-.35a7.25 7.25 0 0 1 4.6.76c.97.56 3.65 2.8 4.2 3.37.56.55 1.42.7 1.83.35.4-.35.98-.35.93.1-.05.47-.27.97.19 1.17.42.2.65-.2.96-.4.3-.21.6-.26.96-.06a6.6 6.6 0 0 1-1.47 1.79c-.56.46-1.42.87-1.98.66l-.35.87 2.53 5.86c.67 1.35.76 1.7 1.3 2.62a56.5 56.5 0 0 0-11.06 3.08l-1.01-3.5 2.32-3.27s-2.42.88-3.16.95c-.15 0-1.31.24-1.56-.9 0 0-.2-.77-.2-1.08 0-.3.25-.65.5-.6.47.1.72-.1.72-.1l.49-.66c-.41-.05-.88-.17-1.08-.17-.2 0-.57.19-.92.28-.2-.14-.52-.42-.42-.78h2.68l.06-.3s-1.39-.63-1.92-.65c-.54-.02-.77.29-.77.29v-.51l1.52-1.29-1.57-.65-.86.16.56-3.57-.3-.62-1.53.93-.04-2.03c.04-.38.75-1.09 1.33-1.42l-.1-1.23c-.6.37-1.29.6-1.7 1.15-.36.5-.8 1.28-.75 1.94-.46-.44-.55-1.16-.46-1.67.14-.69.4-1.18 1.12-1.8a5.44 5.44 0 0 1-.05-2.6c.33-1.6 2.17-4.69 6.63-4.72 2.64-.01 5.85 1.64 8.04 3.31 2.8 2.14 4.45 4.12 4.57 4.78zM8.5 15.74c-1.9 0-3.35.76-3.56 1.4-.13-.89-.03-1.48.59-2.01.68-.58 1.76-.9 2.84-.9 1.62 0 2.68.43 3.28.93.72.59.84 1.27.77 2.06a5.21 5.21 0 0 0-3.92-1.48zM3.77 3.61C3.85 2.18 4.99.42 7.45.3c1.13-.07 2.58.24 3.32.24.74 0 2.64-.19 3.08-.53.24.55.15 1.11-.14 1.61.57.3 2.2.6 2.87.57 1.35-.06 2.73-.81 3.23-1.52.21.74.06 1.85-.6 2.44-1.32 1.19-4.42 1.84-5.33 2.52-.76.56-1.05.88-1.25 1.36-.3-.31-.48-.56-.98-.5-.58.05-.88.63-1.45.6-.75-.05-1.32-1.3-2.2-1.33-1.35-.05-1.89 1.06-2.46 1.09-.4.02-.96-.57-1.19-.88a3.8 3.8 0 0 1-.58-2.35zm1.5 18.02c-.44-.04-1.15 0-1.76.1-.2-.4-.27-1.12-.16-1.59l.67.03-.37-.92a7.59 7.59 0 0 1 3.27-1.36c.1.46.1.85.07 1.02-.03.17-.1.37-.3.47l-.89.46a12.3 12.3 0 0 1 1.63.02c.3.03.44.1.44.4 0 .31-.08.62-.25.86-.17.24-.67.2-.94.23.14.3.18.45.18.75s-.1.45-.38.58c-.26.14-.6.3-.94.55-.24.17-.72.9-.82 1.34-.43-.25-.87-1.21-.98-1.63.38-.63 1.16-1.24 1.53-1.31zm5.9 7.88c.04.38-.1.52-.23.82a5.26 5.26 0 0 0-2.4-.75c-.67.03-1.27.14-1.83.38-.67.3-.5 1.06.55 1.33.1.03.28.07.38.08l-.03.23-.45-.09c-1.04-.23-1.6-.75-1.68-1.43-.09-.71.4-1.18.88-1.42l.04-.02h.02l-.26-4.46s1.24-.9 1.58-1c.34-.1.49-.36.49-.7a8.63 8.63 0 0 1 1.8 1.84c.4.57.64 1.22.68 1.93.03.72.04 1.57-.1 2.45.27.24.53.44.57.81zm5.48-15.43c.03.68.06 1.26-.2 1.87-.07-2.04-2.48-4.52-7.82-4.62-2.9-.06-5.24.66-6.55 1.9l-.02.02c-.6.58-.97 1.26-1.1 2.02 0 .11-.02.22-.01.33.03 1.46 1 2.43 1.7 2.75l-.28.2S0 17.48 0 15.24c0-2.08.93-2.57.96-3.94-.04-.47-.2-.93-.37-1.09.34-.07 1.02.35 1.5.23.59-.15.77-.35 1-.84.22-.49.52-.89 1.03-.93.46-.03 1.63.5 2.33.35.91-.21 1.29-1.12 2.03-1.12.74 0 1.35.98 2.06 1.08.7.1 1.82-.75 2.53-.47.7.27.33 1.36.88 1.8.5.4 1.69-.07 2.02-.14-.1.48-.23.82-.2 1.33.04.5.85 2.04.88 2.58zm27.37 28.14l1.27-1.79c-.46-.46-3.45-2.3-4.26-2.7l-.96 2.5c.66.2 2.83 1.27 3.95 2zm-5.26-2.4l.45-2.65a7.2 7.2 0 0 0-3.04-.67c-1.07 0-2.23.3-2.84.76l.82 2.35c1.1-.25 3.79-.35 4.6.2zm-8.01 1.73c.5-.5 1.52-1.27 2.18-1.63l-.86-1.99c-.56.56-1.77 2.08-1.32 3.62zm2.63 4.03v.92c.5.15 1.07.72 1.42 1.17l.8-.2-.34-.56s.5-.23 1.11-.26c.7-.03 1.34.1 1.68.4l1.74-.4.23-.38c-1.22-.96-2.93-1.9-4.48-1.56-1.04.23-2.16.87-2.16.87z"></path></g><g class="lm-Logo--dark"><path class="lm-Logo--medallionFill" d="M37.29 47.74a8.5 8.5 0 0 0-2.17.87v.89c.57.256 1.06.66 1.42 1.17l.81-.2-.35-.56a3.11 3.11 0 0 1 1.12-.26 2.5 2.5 0 0 1 1.68.4l1.76-.41.23-.37c-1.22-.93-2.95-1.87-4.5-1.53Zm3.23-4.9.45-2.65a7.2 7.2 0 0 0-3-.67 5.26 5.26 0 0 0-2.86.77l.82 2.35c1.07-.26 3.77-.36 4.59.2Zm6.57.66a36.402 36.402 0 0 0-4.28-2.7l-1 2.5a24.525 24.525 0 0 1 4 2l1.28-1.8Z"></path><path class="lm-Logo--medallionFill" d="m64.21 36.7-8.33 3.11a31.08 31.08 0 0 0-2.24-4.47l2.7-7.41s.34-.74 0-.92c-.34-.18-.82.31-.82.31l-4.91 4a20.34 20.34 0 0 0-9.74-6l-1.52-5.87s-.13-.58-.52-.58-.5.55-.5.55l-1 5.18a27.189 27.189 0 0 0-3.3-.21 23.501 23.501 0 0 0-9.75 2 21.114 21.114 0 0 0-3.44 2l-.52.4c-1-2.62-1.81-4.76-2-5.41a9.521 9.521 0 0 0 2-3.64 6.26 6.26 0 0 0-.14-3.94 11.31 11.31 0 0 1-.88-2.5 1.63 1.63 0 0 1 .48-1 1.11 1.11 0 0 0-1-1 6.093 6.093 0 0 0-1.23.09c-.1-.18-.31-.15-.15-.82.23-1 2.16-1.49 3.74-2.11a4.61 4.61 0 0 0 3.18-4.55A3.68 3.68 0 0 0 22.26.4a4.79 4.79 0 0 1-1.89 2 3.42 3.42 0 0 1-2.26.35A2.6 2.6 0 0 0 16.79.02a3.41 3.41 0 0 1-3 1.21c-1.63 0-1.74-.44-4-.43-3.27 0-6 2-6.3 4.89a6.64 6.64 0 0 0 1 4.3 11 11 0 0 0-1.53 1.51 1.24 1.24 0 0 0-1.67-.13c.175.443.2.932.07 1.39A19 19 0 0 0-.1 17.45a5.87 5.87 0 0 0 3.12 5.95 1.46 1.46 0 0 0-.16 1.5 1.14 1.14 0 0 0 1.12.59 1.55 1.55 0 0 0-.27 1.64c.27.68 1.05 1.68 1.73 1.68a13 13 0 0 0 .37 2.49 2.67 2.67 0 0 0-.44 1.61 1.72 1.72 0 0 0 1.26 1.67c.121.405.303.79.54 1.14.271.376.61.698 1 .95a3.15 3.15 0 0 0 1.77.62 7.005 7.005 0 0 0 1.58-.07c0 .2.08 2 .16 4a48.42 48.42 0 0 0-2.57 16.29c0 10.67 3 20.19 8.8 26.31.375.386.799.722 1.26 1a66.074 66.074 0 0 1 4.56-6.65 23.724 23.724 0 0 1 2.37-2.59c1.36-1.18 2.67-2.24 4-3.17a33 33 0 0 1 11.46-5.09c-4.36 2.27-6.83 3.48-10.92 7a40.64 40.64 0 0 0-9.56 11.6 4.49 4.49 0 0 0 2.32 1.05c.59-.71 3.67-6.38 8.38-10.93 9.54-9 20.78-11.07 26.67-11 .337-2.52.504-5.058.5-7.6a53.09 53.09 0 0 0-1.33-12.12l7-7.87s.49-.49.28-.77c-.21-.28-.69.02-.69.02Zm-9.68-7.06-5.41 11.53a19.7 19.7 0 0 0-3.65-2.57l9.06-8.96Zm-15.7-7.45 2.58 14.62a10.65 10.65 0 0 0-4.47-.44l1.89-14.18ZM33 37.82a6.47 6.47 0 0 0-2.51 2.87l-6.44-11L33 37.82ZM28.85 48.5l-2.74-1.89a21.858 21.858 0 0 0-.18-2.25v-.24l3.44 1.66a3.06 3.06 0 0 0-.52 1.34 3.69 3.69 0 0 0 0 1.38Zm-10-43.33a4.67 4.67 0 0 0 3.25-1.52 2.56 2.56 0 0 1-.6 2.44c-1.33 1.19-4.46 1.83-5.37 2.52a3.25 3.25 0 0 0-1.26 1.36c-.3-.31-.48-.56-1-.51-.52.05-.89.64-1.46.61-.76-.05-1.33-1.29-2.21-1.33-1.36-.05-1.91 1.06-2.48 1.09-.41 0-1-.57-1.2-.88a3.87 3.87 0 0 1-.59-2.35 3.68 3.68 0 0 1 3.71-3.33c1.14-.06 2.6.24 3.34.24a8.56 8.56 0 0 0 3.1-.52 1.71 1.71 0 0 1-.14 1.61 8.49 8.49 0 0 0 2.86.58l.05-.01ZM2.47 19.01a3.39 3.39 0 0 1-.41-1.72c.19-.828.5-1.623.92-2.36a2.2 2.2 0 0 0-.14-1.76c.3-.07.93.3 1.36.2a1.14 1.14 0 0 0 .91-.76c.21-.45.48-.81 1-.84.52-.03 1.27.4 2 .24.92-.21 1.29-1.12 2-1.12s1.36 1 2.07 1.08c.71.08 1.84-.75 2.55-.47.71.28.34 1.36.89 1.8.55.44 1.69-.07 2-.13-.133.427-.2.872-.2 1.32 0 .51.85 2 .88 2.58a3.82 3.82 0 0 1-.2 1.88c-.07-2-2.49-4.53-7.86-4.63-4.74-.08-7.96 1.81-7.82 4.7l.05-.01Zm11.57 1.21a5.201 5.201 0 0 0-4-1.48c-1.9 0-3.37.76-3.58 1.4a1.93 1.93 0 0 1 .59-2 4.55 4.55 0 0 1 2.87-.9 5.18 5.18 0 0 1 3.29.92 2.14 2.14 0 0 1 .79 2.07l.04-.01Zm-6.91 6a3.14 3.14 0 0 0-.83 1.35 3.4 3.4 0 0 1-1-1.64 3.25 3.25 0 0 1 1.53-1.31 8.057 8.057 0 0 0-1.77.1 2.85 2.85 0 0 1-.17-1.59h.68l-.37-.92a7.69 7.69 0 0 1 3.3-1.36 3 3 0 0 1 .06 1 .64.64 0 0 1-.3.48c-.21.09-.89.45-.89.45.546-.04 1.094-.04 1.64 0 .3 0 .44.1.44.41a1.51 1.51 0 0 1-.25.84c-.18.25-.68.21-1 .24.126.233.189.495.18.76a.56.56 0 0 1-.38.58 6.002 6.002 0 0 0-.92.63l.05-.02Zm5.43 7.11a5.36 5.36 0 0 0-2.42-.75 4.7 4.7 0 0 0-2.41.68.86.86 0 0 1-.2-1.09c.2-.47.47-.55.47-.55l-.25-4.45a12.127 12.127 0 0 1 1.59-1 .68.68 0 0 0 .49-.71 8.55 8.55 0 0 1 1.81 1.84c.413.565.65 1.24.68 1.94.053.818.02 1.64-.1 2.45.28.23.55.44.58.81a1.41 1.41 0 0 1-.29.85l.05-.02Zm1.14 4.43v-.78c-.2-3.9-.37-7.57-.39-7.84l.89-.64v-.17a2.24 2.24 0 0 1-1.63-.65l-.24-5.07a4 4 0 0 1-2.14-.68 1.4 1.4 0 0 1-.27-1.87 6.18 6.18 0 0 0 2.85.68c.24 0 .74.54 1 .65.26.11.87.43 1.13.54.26.11.37.65.44.85.07.2 7.12 18.54 8.24 21.35l.07.18c.05.11.07.17.08.18.14.23.61 3.81.64 4.08a25.178 25.178 0 0 0 1.5 3.4 6.58 6.58 0 0 0-4.33 2 14.23 14.23 0 0 0-3 5.87c0-.33-.84-2.87-1.73-5.64l-.22-.67c-1.09-3.37-2.24-6.84-2.33-7-.09-.16-.38-4.44-.61-8.75l.05-.02Zm8.61 37.27c-.76 1.31-2.92 3.95-3.68 4.95.82-1.63 1.45-5.57 1.4-8.63 0-2-.64-6.38-.11-9.29a10.67 10.67 0 0 1 3.54-6.8 6.58 6.58 0 0 1 6.35-1.39l2.52 4.74a5.77 5.77 0 0 0-4.32.89c-2.23 1.71-3 4-3.35 7.4a20.75 20.75 0 0 1-2.4 8.15l.05-.02Zm2.59-1.68a42.807 42.807 0 0 0 1.65-6.63c.29-1.69.56-4.15 2.56-5.81a4.24 4.24 0 0 1 3.26-.73l2.84 5.81a1.72 1.72 0 0 0 1.65.79c-2.71.89-9.44 4.09-12.01 6.59l.05-.02Zm13.69-7.06-1-3.51 2.33-3.27c-1.032.39-2.092.704-3.17.94-.15 0-1.32.24-1.57-.9a6.83 6.83 0 0 1-.2-1.08c0-.29.25-.65.51-.59a1 1 0 0 0 .71-.1l.49-.66c-.41-.05-.88-.18-1.08-.18a6.49 6.49 0 0 0-.93.29c-.2-.15-.52-.43-.41-.78h2.69l.06-.31A9.282 9.282 0 0 0 35 55.5a.921.921 0 0 0-.77.29v-.51l1.53-1.29-1.58-.65-.87.16.56-3.57-.3-.63-1.54.93v-2c0-.37.77-1.08 1.35-1.42l-.1-1.23a5.218 5.218 0 0 0-1.7 1.16 3.32 3.32 0 0 0-.77 1.94 1.909 1.909 0 0 1-.46-1.67 2.9 2.9 0 0 1 1.12-1.8 5.58 5.58 0 0 1 0-2.61c.34-1.61 2.19-4.69 6.68-4.72 2.66 0 5.89 1.64 8.09 3.32 2.82 2.13 4.48 4.11 4.6 4.77.098.297.118.613.06.92-.13-.16-.55-.6-1-1.06l-.28-.27-1.2-1.17-1.38 1.75 2.6 2.28a3.19 3.19 0 0 1-2.24.51c-1.21-.15-3.88-1.84-3.92-3.16a16.06 16.06 0 0 0-5.61-1.17 13.57 13.57 0 0 0-3.27.5c-.46.16-.8-.13-1.15-.28l-.16.1 1 1.56c.3.16.87-.2 1.68-.34a7.32 7.32 0 0 1 4.64.75 38.138 38.138 0 0 1 4.23 3.37 1.47 1.47 0 0 0 1.83.36c.41-.36 1-.35.94.11-.06.46-.28 1 .19 1.16.47.16.66-.2 1-.41a.86.86 0 0 1 1 0 6.66 6.66 0 0 1-1.47 1.79 2.42 2.42 0 0 1-2 .66l-.36.87 2.55 5.87c.67 1.35.76 1.71 1.3 2.61a56.465 56.465 0 0 0-11.28 3.03l.05-.02Zm13.58-3.55c-.509-.864-.94-1.77-1.29-2.71l-1.8-3.33a1.79 1.79 0 0 1 0-1.88 8.759 8.759 0 0 1 2.25-2.1l.17 3.48s1 1.92 2 3.85l.22.45c.4.82.78 1.61 1.07 2.24-.97 0-1.85.02-2.67.02l.05-.02Zm1-15.53a8.451 8.451 0 0 0-1.66-3.73l10.57-4.69-8.91 8.42Z"></path><path class="lm-Logo--medallionFill" d="M33.79 40.95c-.56.56-1.79 2.09-1.33 3.63a12.385 12.385 0 0 1 2.19-1.64l-.86-1.99Z"></path></g><rect width="100%" height="100%" style="opacity: 0;"><title>Liberty Mutual Insurance logo</title></rect></svg>